<mxfile host="65bd71144e">
    <diagram id="njewx1TEBYXNk1hthwdp" name="Page-1">
        <mxGraphModel dx="1148" dy="548" grid="1" gridSize="10" guides="1" tooltips="1" connect="1" arrows="1" fold="1" page="1" pageScale="1" pageWidth="827" pageHeight="1169" math="0" shadow="0">
            <root>
                <mxCell id="0"/>
                <mxCell id="1" parent="0"/>
                <mxCell id="2" value="TASK: To create my own kata" style="rounded=0;whiteSpace=wrap;html=1;" parent="1" vertex="1">
                    <mxGeometry x="320" y="30" width="440" height="60" as="geometry"/>
                </mxCell>
                <mxCell id="3" value="1. Pick a topic&lt;br&gt;&lt;br&gt;Reverse words which have only one capital letter within a string&lt;br&gt;&lt;br&gt;\b[a-z]*[A-Z][a-z]*\b&lt;br&gt;&lt;br&gt;End user - someone completing my kata&lt;br&gt;" style="rounded=0;whiteSpace=wrap;html=1;" parent="1" vertex="1">
                    <mxGeometry x="40" y="120" width="280" height="320" as="geometry"/>
                </mxCell>
                <mxCell id="4" value="2. Define ideal features&lt;br&gt;&lt;br&gt;When completing a kata I would expect:&lt;br&gt;&lt;br&gt;Robust tests for all cases and edge cases&lt;br&gt;Clearly defined instructions&lt;br&gt;Defined scenario for code&lt;br&gt;Test cases reverse to make sense&lt;br&gt;Test case for wrong input type - should return error&lt;br&gt;&lt;br&gt;THE TESTS SHOULD BE CLEAR AND SAY EXACTLY WHAT CASES ARE BEING TESTED" style="rounded=0;whiteSpace=wrap;html=1;" parent="1" vertex="1">
                    <mxGeometry x="400" y="120" width="280" height="320" as="geometry"/>
                </mxCell>
                <mxCell id="5" value="3. Condense features into MVPs&lt;br&gt;&lt;br&gt;1) Create basic framework&lt;br&gt;2) Write and check basic tests for function&lt;br&gt;3) Write and check tests for edge cases and wrong inputs&lt;br&gt;4) Write instructions and examples&lt;br&gt;5) Write scenario" style="rounded=0;whiteSpace=wrap;html=1;" parent="1" vertex="1">
                    <mxGeometry x="760" y="120" width="280" height="320" as="geometry"/>
                </mxCell>
                <mxCell id="6" value="&lt;font style=&quot;font-size: 12px;&quot;&gt;MVP 1 Breakdown:&lt;br&gt;&lt;br&gt;1) Install Vitest&amp;nbsp;&lt;span style=&quot;color: rgb(232, 234, 237); font-family: &amp;quot;Google Sans&amp;quot;, arial, sans-serif; text-align: start; background-color: rgb(32, 33, 36);&quot;&gt;✅&lt;br&gt;2) Add vitest to dependencies&lt;/span&gt;&amp;nbsp;&lt;span style=&quot;color: rgb(232, 234, 237); font-family: &amp;quot;Google Sans&amp;quot;, arial, sans-serif; text-align: start; background-color: rgb(32, 33, 36);&quot;&gt;✅&lt;/span&gt;&lt;span style=&quot;color: rgb(232, 234, 237); font-family: &amp;quot;Google Sans&amp;quot;, arial, sans-serif; text-align: start; background-color: rgb(32, 33, 36);&quot;&gt;&lt;br&gt;3) Set up example test and verify this works&lt;/span&gt;&amp;nbsp;&lt;span style=&quot;color: rgb(232, 234, 237); font-family: &amp;quot;Google Sans&amp;quot;, arial, sans-serif; text-align: start; background-color: rgb(32, 33, 36);&quot;&gt;✅&lt;/span&gt;&lt;span style=&quot;color: rgb(232, 234, 237); font-family: &amp;quot;Google Sans&amp;quot;, arial, sans-serif; text-align: start; background-color: rgb(32, 33, 36);&quot;&gt;&lt;br&gt;&amp;nbsp;&lt;br&gt;&lt;br&gt;&amp;nbsp;&lt;/span&gt;&lt;/font&gt;" style="rounded=0;whiteSpace=wrap;html=1;" parent="1" vertex="1">
                    <mxGeometry x="200" y="520" width="280" height="370" as="geometry"/>
                </mxCell>
                <mxCell id="7" value="" style="endArrow=classic;html=1;exitX=1;exitY=0.5;exitDx=0;exitDy=0;entryX=0;entryY=0.5;entryDx=0;entryDy=0;" parent="1" source="3" target="4" edge="1">
                    <mxGeometry width="50" height="50" relative="1" as="geometry">
                        <mxPoint x="630" y="510" as="sourcePoint"/>
                        <mxPoint x="680" y="460" as="targetPoint"/>
                    </mxGeometry>
                </mxCell>
                <mxCell id="8" value="" style="endArrow=classic;html=1;exitX=1;exitY=0.5;exitDx=0;exitDy=0;entryX=0;entryY=0.5;entryDx=0;entryDy=0;" parent="1" source="4" target="5" edge="1">
                    <mxGeometry width="50" height="50" relative="1" as="geometry">
                        <mxPoint x="630" y="510" as="sourcePoint"/>
                        <mxPoint x="680" y="460" as="targetPoint"/>
                    </mxGeometry>
                </mxCell>
                <mxCell id="9" value="" style="endArrow=classic;html=1;entryX=0.5;entryY=0;entryDx=0;entryDy=0;exitX=0.5;exitY=1;exitDx=0;exitDy=0;" parent="1" source="5" target="6" edge="1">
                    <mxGeometry width="50" height="50" relative="1" as="geometry">
                        <mxPoint x="590" y="570" as="sourcePoint"/>
                        <mxPoint x="640" y="520" as="targetPoint"/>
                    </mxGeometry>
                </mxCell>
                <mxCell id="10" value="MVP 1 Reflections:&lt;br&gt;&lt;br&gt;Need to write solution to check my tests" style="rounded=0;whiteSpace=wrap;html=1;" parent="1" vertex="1">
                    <mxGeometry x="600" y="520" width="280" height="370" as="geometry"/>
                </mxCell>
                <mxCell id="11" value="" style="endArrow=classic;html=1;exitX=1;exitY=0.5;exitDx=0;exitDy=0;entryX=0;entryY=0.5;entryDx=0;entryDy=0;" parent="1" source="6" target="10" edge="1">
                    <mxGeometry width="50" height="50" relative="1" as="geometry">
                        <mxPoint x="660" y="710" as="sourcePoint"/>
                        <mxPoint x="710" y="660" as="targetPoint"/>
                    </mxGeometry>
                </mxCell>
                <mxCell id="12" value="MVP 2 Breakdown:&lt;br&gt;&lt;br&gt;1) Write function&amp;nbsp;&lt;span style=&quot;color: rgb(232, 234, 237); font-family: &amp;quot;Google Sans&amp;quot;, arial, sans-serif; font-size: 20px; text-align: start; background-color: rgb(32, 33, 36);&quot;&gt;✅&lt;/span&gt;&lt;br&gt;2) Write test for cases with word with one capital letter&amp;nbsp;&lt;span style=&quot;color: rgb(232, 234, 237); font-family: &amp;quot;Google Sans&amp;quot;, arial, sans-serif; text-align: start; background-color: rgb(32, 33, 36);&quot;&gt;✅&lt;/span&gt;&lt;br&gt;3) Write test for cases with no words with one capital letter&lt;span style=&quot;color: rgb(232, 234, 237); font-family: &amp;quot;Google Sans&amp;quot;, arial, sans-serif; text-align: start; background-color: rgb(32, 33, 36);&quot;&gt;✅&lt;/span&gt;" style="rounded=0;whiteSpace=wrap;html=1;" parent="1" vertex="1">
                    <mxGeometry x="200" y="960" width="280" height="370" as="geometry"/>
                </mxCell>
                <mxCell id="13" value="MVP 2 Reflections:&lt;br&gt;&lt;br&gt;Should create equivalence partitioning, decision, and edge cases tables to ensure tests are exhaustive&amp;nbsp;" style="rounded=0;whiteSpace=wrap;html=1;" parent="1" vertex="1">
                    <mxGeometry x="600" y="960" width="280" height="370" as="geometry"/>
                </mxCell>
                <mxCell id="14" value="" style="endArrow=classic;html=1;exitX=1;exitY=0.5;exitDx=0;exitDy=0;entryX=0;entryY=0.5;entryDx=0;entryDy=0;" parent="1" source="12" target="13" edge="1">
                    <mxGeometry width="50" height="50" relative="1" as="geometry">
                        <mxPoint x="660" y="1150" as="sourcePoint"/>
                        <mxPoint x="710" y="1100" as="targetPoint"/>
                    </mxGeometry>
                </mxCell>
                <mxCell id="15" value="" style="endArrow=classic;html=1;exitX=0.5;exitY=1;exitDx=0;exitDy=0;entryX=0.5;entryY=0;entryDx=0;entryDy=0;" parent="1" source="10" target="12" edge="1">
                    <mxGeometry width="50" height="50" relative="1" as="geometry">
                        <mxPoint x="590" y="930" as="sourcePoint"/>
                        <mxPoint x="640" y="880" as="targetPoint"/>
                    </mxGeometry>
                </mxCell>
                <mxCell id="16" value="MVP 3 Breakdown:&lt;br&gt;&lt;br&gt;&lt;div style=&quot;&quot;&gt;Create tables for all test cases&lt;/div&gt;&lt;span style=&quot;color: rgb(232, 234, 237); font-family: &amp;quot;Google Sans&amp;quot;, arial, sans-serif; text-align: start; background-color: rgb(32, 33, 36);&quot;&gt;✅&lt;/span&gt;&lt;div style=&quot;&quot;&gt;Write and check test for each corresponding case&amp;nbsp;&lt;/div&gt;&lt;span style=&quot;color: rgb(232, 234, 237); font-family: &amp;quot;Google Sans&amp;quot;, arial, sans-serif; text-align: start; background-color: rgb(32, 33, 36);&quot;&gt;✅&lt;/span&gt;" style="rounded=0;whiteSpace=wrap;html=1;align=center;" parent="1" vertex="1">
                    <mxGeometry x="200" y="1400" width="280" height="370" as="geometry"/>
                </mxCell>
                <mxCell id="17" value="MVP 3 Reflections:&lt;br&gt;&lt;br&gt;Move testing user function throws error to extension goal&amp;nbsp;" style="rounded=0;whiteSpace=wrap;html=1;" parent="1" vertex="1">
                    <mxGeometry x="600" y="1400" width="280" height="370" as="geometry"/>
                </mxCell>
                <mxCell id="18" value="" style="endArrow=classic;html=1;exitX=1;exitY=0.5;exitDx=0;exitDy=0;entryX=0;entryY=0.5;entryDx=0;entryDy=0;" parent="1" source="16" target="17" edge="1">
                    <mxGeometry width="50" height="50" relative="1" as="geometry">
                        <mxPoint x="660" y="1590" as="sourcePoint"/>
                        <mxPoint x="710" y="1540" as="targetPoint"/>
                    </mxGeometry>
                </mxCell>
                <mxCell id="19" value="" style="endArrow=classic;html=1;exitX=0.5;exitY=1;exitDx=0;exitDy=0;entryX=0.5;entryY=0;entryDx=0;entryDy=0;" parent="1" source="13" target="16" edge="1">
                    <mxGeometry width="50" height="50" relative="1" as="geometry">
                        <mxPoint x="660" y="1460" as="sourcePoint"/>
                        <mxPoint x="710" y="1410" as="targetPoint"/>
                    </mxGeometry>
                </mxCell>
                <mxCell id="20" value="MVP 4 Breakdown:&lt;br&gt;&lt;br&gt;&lt;div style=&quot;&quot;&gt;&lt;span style=&quot;background-color: initial;&quot;&gt;&lt;span style=&quot;&quot;&gt;&#9;&lt;/span&gt;Write comprehensive instructions&amp;nbsp;&lt;/span&gt;&lt;/div&gt;&lt;span style=&quot;color: rgb(232, 234, 237); font-family: &amp;quot;Google Sans&amp;quot;, arial, sans-serif; text-align: start; background-color: rgb(32, 33, 36);&quot;&gt;✅&lt;/span&gt;" style="rounded=0;whiteSpace=wrap;html=1;align=center;" parent="1" vertex="1">
                    <mxGeometry x="200" y="1840" width="280" height="370" as="geometry"/>
                </mxCell>
                <mxCell id="21" value="MVP 4 Reflections:&lt;br&gt;" style="rounded=0;whiteSpace=wrap;html=1;" parent="1" vertex="1">
                    <mxGeometry x="600" y="1840" width="280" height="370" as="geometry"/>
                </mxCell>
                <mxCell id="22" value="" style="endArrow=classic;html=1;exitX=1;exitY=0.5;exitDx=0;exitDy=0;entryX=0;entryY=0.5;entryDx=0;entryDy=0;" parent="1" source="20" target="21" edge="1">
                    <mxGeometry width="50" height="50" relative="1" as="geometry">
                        <mxPoint x="660" y="2030" as="sourcePoint"/>
                        <mxPoint x="710" y="1980" as="targetPoint"/>
                    </mxGeometry>
                </mxCell>
                <mxCell id="23" value="" style="endArrow=classic;html=1;entryX=0.5;entryY=0;entryDx=0;entryDy=0;exitX=0.5;exitY=1;exitDx=0;exitDy=0;" parent="1" source="17" target="20" edge="1">
                    <mxGeometry width="50" height="50" relative="1" as="geometry">
                        <mxPoint x="590" y="1950" as="sourcePoint"/>
                        <mxPoint x="640" y="1900" as="targetPoint"/>
                    </mxGeometry>
                </mxCell>
                <mxCell id="24" value="MVP 5 Breakdown:&lt;br&gt;&lt;br&gt;&lt;div style=&quot;&quot;&gt;Write scenario&amp;nbsp;&lt;/div&gt;&lt;span style=&quot;color: rgb(232, 234, 237); font-family: &amp;quot;Google Sans&amp;quot;, arial, sans-serif; text-align: start; background-color: rgb(32, 33, 36);&quot;&gt;✅&lt;/span&gt;" style="rounded=0;whiteSpace=wrap;html=1;align=center;" parent="1" vertex="1">
                    <mxGeometry x="200" y="2280" width="280" height="370" as="geometry"/>
                </mxCell>
                <mxCell id="25" value="MVP 5 Reflections:" style="rounded=0;whiteSpace=wrap;html=1;" parent="1" vertex="1">
                    <mxGeometry x="600" y="2280" width="280" height="370" as="geometry"/>
                </mxCell>
                <mxCell id="26" value="" style="endArrow=classic;html=1;exitX=1;exitY=0.5;exitDx=0;exitDy=0;entryX=0;entryY=0.5;entryDx=0;entryDy=0;" parent="1" source="24" target="25" edge="1">
                    <mxGeometry width="50" height="50" relative="1" as="geometry">
                        <mxPoint x="660" y="2470" as="sourcePoint"/>
                        <mxPoint x="710" y="2420" as="targetPoint"/>
                    </mxGeometry>
                </mxCell>
                <mxCell id="27" value="" style="endArrow=classic;html=1;entryX=0.5;entryY=0;entryDx=0;entryDy=0;exitX=0.5;exitY=1;exitDx=0;exitDy=0;" parent="1" source="21" target="24" edge="1">
                    <mxGeometry width="50" height="50" relative="1" as="geometry">
                        <mxPoint x="670" y="2270" as="sourcePoint"/>
                        <mxPoint x="720" y="2220" as="targetPoint"/>
                    </mxGeometry>
                </mxCell>
            </root>
        </mxGraphModel>
    </diagram>
</mxfile>